<svg width="157" height="27" viewBox="0 0 157 27" fill="none" xmlns="http://www.w3.org/2000/svg">
<path d="M31.7812 8.78906V6H44.9219V8.78906H40.0234V22H36.6797V8.78906H31.7812ZM47.0234 22V10H50.3516V22H47.0234ZM48.6953 8.45312C48.2005 8.45312 47.776 8.28906 47.4219 7.96094C47.0729 7.6276 46.8984 7.22917 46.8984 6.76562C46.8984 6.30729 47.0729 5.91406 47.4219 5.58594C47.776 5.2526 48.2005 5.08594 48.6953 5.08594C49.1901 5.08594 49.612 5.2526 49.9609 5.58594C50.3151 5.91406 50.4922 6.30729 50.4922 6.76562C50.4922 7.22917 50.3151 7.6276 49.9609 7.96094C49.612 8.28906 49.1901 8.45312 48.6953 8.45312ZM56.3457 15.0625V22H53.0176V10H56.1895V12.1172H56.3301C56.5957 11.4193 57.041 10.8672 57.666 10.4609C58.291 10.0495 59.0488 9.84375 59.9395 9.84375C60.7728 9.84375 61.4993 10.026 62.1191 10.3906C62.7389 10.7552 63.2207 11.276 63.5645 11.9531C63.9082 12.625 64.0801 13.4271 64.0801 14.3594V22H60.752V14.9531C60.7572 14.2187 60.5697 13.6458 60.1895 13.2344C59.8092 12.8177 59.2858 12.6094 58.6191 12.6094C58.1712 12.6094 57.7754 12.7057 57.4316 12.8984C57.0931 13.0911 56.8275 13.3724 56.6348 13.7422C56.4473 14.1068 56.3509 14.5469 56.3457 15.0625ZM68.3281 26.5C67.9062 26.5 67.5104 26.4661 67.1406 26.3984C66.776 26.3359 66.474 26.2552 66.2344 26.1562L66.9844 23.6719C67.375 23.7917 67.7266 23.8568 68.0391 23.8672C68.3568 23.8776 68.6302 23.8047 68.8594 23.6484C69.0938 23.4922 69.2839 23.2266 69.4297 22.8516L69.625 22.3438L65.3203 10H68.8203L71.3047 18.8125H71.4297L73.9375 10H77.4609L72.7969 23.2969C72.5729 23.9427 72.2682 24.5052 71.8828 24.9844C71.5026 25.4688 71.0208 25.8411 70.4375 26.1016C69.8542 26.3672 69.151 26.5 68.3281 26.5ZM79.1641 26.5V10H82.4453V12.0156H82.5938C82.7396 11.6927 82.9505 11.3646 83.2266 11.0312C83.5078 10.6927 83.8724 10.4115 84.3203 10.1875C84.7734 9.95833 85.3359 9.84375 86.0078 9.84375C86.8828 9.84375 87.6901 10.0729 88.4297 10.5313C89.1693 10.9844 89.7604 11.6693 90.2031 12.5859C90.6458 13.4974 90.8672 14.6406 90.8672 16.0156C90.8672 17.3542 90.651 18.4844 90.2188 19.4062C89.7917 20.3229 89.2083 21.0182 88.4688 21.4922C87.7344 21.9609 86.9115 22.1953 86 22.1953C85.3542 22.1953 84.8047 22.0885 84.3516 21.875C83.9036 21.6615 83.5365 21.3932 83.25 21.0703C82.9635 20.7422 82.7448 20.4115 82.5938 20.0781H82.4922V26.5H79.1641ZM82.4219 16C82.4219 16.7135 82.5208 17.3359 82.7188 17.8672C82.9167 18.3984 83.2031 18.8125 83.5781 19.1094C83.9531 19.401 84.4089 19.5469 84.9453 19.5469C85.487 19.5469 85.9453 19.3984 86.3203 19.1016C86.6953 18.7995 86.9792 18.3828 87.1719 17.8516C87.3698 17.3151 87.4688 16.6979 87.4688 16C87.4688 15.3073 87.3724 14.6979 87.1797 14.1719C86.987 13.6458 86.7031 13.2344 86.3281 12.9375C85.9531 12.6406 85.4922 12.4922 84.9453 12.4922C84.4036 12.4922 83.9453 12.6354 83.5703 12.9219C83.2005 13.2083 82.9167 13.6146 82.7188 14.1406C82.5208 14.6667 82.4219 15.2865 82.4219 16ZM93.0859 22V10H96.3125V12.0937H96.4375C96.6563 11.349 97.0234 10.7865 97.5391 10.4063C98.0547 10.0208 98.6484 9.82812 99.3203 9.82812C99.487 9.82812 99.6667 9.83854 99.8594 9.85937C100.052 9.88021 100.221 9.90885 100.367 9.94531V12.8984C100.211 12.8516 99.9948 12.8099 99.7188 12.7734C99.4427 12.737 99.1901 12.7188 98.9609 12.7188C98.4714 12.7188 98.0339 12.8255 97.6484 13.0391C97.2682 13.2474 96.9661 13.5391 96.7422 13.9141C96.5234 14.2891 96.4141 14.7214 96.4141 15.2109V22H93.0859ZM106.951 22.2344C105.738 22.2344 104.688 21.9766 103.803 21.4609C102.923 20.9401 102.243 20.2161 101.764 19.2891C101.285 18.3568 101.045 17.276 101.045 16.0469C101.045 14.8073 101.285 13.724 101.764 12.7969C102.243 11.8646 102.923 11.1406 103.803 10.625C104.688 10.1042 105.738 9.84375 106.951 9.84375C108.165 9.84375 109.212 10.1042 110.092 10.625C110.977 11.1406 111.66 11.8646 112.139 12.7969C112.618 13.724 112.857 14.8073 112.857 16.0469C112.857 17.276 112.618 18.3568 112.139 19.2891C111.66 20.2161 110.977 20.9401 110.092 21.4609C109.212 21.9766 108.165 22.2344 106.951 22.2344ZM106.967 19.6562C107.519 19.6562 107.98 19.5 108.35 19.1875C108.719 18.8698 108.998 18.4375 109.186 17.8906C109.378 17.3437 109.475 16.7214 109.475 16.0234C109.475 15.3255 109.378 14.7031 109.186 14.1562C108.998 13.6094 108.719 13.1771 108.35 12.8594C107.98 12.5417 107.519 12.3828 106.967 12.3828C106.41 12.3828 105.941 12.5417 105.561 12.8594C105.186 13.1771 104.902 13.6094 104.709 14.1562C104.521 14.7031 104.428 15.3255 104.428 16.0234C104.428 16.7214 104.521 17.3437 104.709 17.8906C104.902 18.4375 105.186 18.8698 105.561 19.1875C105.941 19.5 106.41 19.6562 106.967 19.6562ZM115.021 22V10H118.193V12.1172H118.334C118.584 11.4141 119.001 10.8594 119.584 10.4531C120.167 10.0469 120.865 9.84375 121.678 9.84375C122.501 9.84375 123.201 10.0495 123.779 10.4609C124.357 10.8672 124.743 11.4193 124.936 12.1172H125.061C125.305 11.4297 125.748 10.8802 126.389 10.4687C127.035 10.0521 127.798 9.84375 128.678 9.84375C129.798 9.84375 130.706 10.2005 131.404 10.9141C132.107 11.6224 132.459 12.6276 132.459 13.9297V22H129.139V14.5859C129.139 13.9193 128.962 13.4193 128.607 13.0859C128.253 12.7526 127.811 12.5859 127.279 12.5859C126.675 12.5859 126.204 12.7786 125.865 13.1641C125.527 13.5443 125.357 14.0469 125.357 14.6719V22H122.131V14.5156C122.131 13.9271 121.962 13.4583 121.623 13.1094C121.29 12.7604 120.85 12.5859 120.303 12.5859C119.933 12.5859 119.6 12.6797 119.303 12.8672C119.011 13.0495 118.779 13.3073 118.607 13.6406C118.436 13.9687 118.35 14.3542 118.35 14.7969V22H115.021ZM135.088 26.5V10H138.369V12.0156H138.518C138.663 11.6927 138.874 11.3646 139.15 11.0312C139.432 10.6927 139.796 10.4115 140.244 10.1875C140.697 9.95833 141.26 9.84375 141.932 9.84375C142.807 9.84375 143.614 10.0729 144.354 10.5313C145.093 10.9844 145.684 11.6693 146.127 12.5859C146.57 13.4974 146.791 14.6406 146.791 16.0156C146.791 17.3542 146.575 18.4844 146.143 19.4062C145.715 20.3229 145.132 21.0182 144.393 21.4922C143.658 21.9609 142.835 22.1953 141.924 22.1953C141.278 22.1953 140.729 22.0885 140.275 21.875C139.827 21.6615 139.46 21.3932 139.174 21.0703C138.887 20.7422 138.669 20.4115 138.518 20.0781H138.416V26.5H135.088ZM138.346 16C138.346 16.7135 138.445 17.3359 138.643 17.8672C138.84 18.3984 139.127 18.8125 139.502 19.1094C139.877 19.401 140.333 19.5469 140.869 19.5469C141.411 19.5469 141.869 19.3984 142.244 19.1016C142.619 18.7995 142.903 18.3828 143.096 17.8516C143.294 17.3151 143.393 16.6979 143.393 16C143.393 15.3073 143.296 14.6979 143.104 14.1719C142.911 13.6458 142.627 13.2344 142.252 12.9375C141.877 12.6406 141.416 12.4922 140.869 12.4922C140.327 12.4922 139.869 12.6354 139.494 12.9219C139.124 13.2083 138.84 13.6146 138.643 14.1406C138.445 14.6667 138.346 15.2865 138.346 16ZM155.393 10V12.5H148.166V10H155.393ZM149.807 7.125H153.135V18.3125C153.135 18.6198 153.182 18.8594 153.275 19.0312C153.369 19.1979 153.499 19.3151 153.666 19.3828C153.838 19.4505 154.036 19.4844 154.26 19.4844C154.416 19.4844 154.572 19.4714 154.729 19.4453C154.885 19.4141 155.005 19.3906 155.088 19.375L155.611 21.8516C155.445 21.9036 155.21 21.9635 154.908 22.0313C154.606 22.1042 154.239 22.1484 153.807 22.1641C153.005 22.1953 152.301 22.0885 151.697 21.8437C151.098 21.599 150.632 21.2187 150.299 20.7031C149.965 20.1875 149.801 19.5365 149.807 18.75V7.125Z" fill="#7C3AED"/>
<path d="M15 17L21 23M15 17V21.8M15 17H19.8" stroke="#7C3AED" stroke-width="2" stroke-linecap="round" stroke-linejoin="round"/>
<path d="M9 21.8V17M9 17H4.2M9 17L3 23" stroke="#7C3AED" stroke-width="2" stroke-linecap="round" stroke-linejoin="round"/>
<path d="M15 6.2V11M15 11H19.8M15 11L21 5" stroke="#7C3AED" stroke-width="2" stroke-linecap="round" stroke-linejoin="round"/>
<path d="M9 6.2V11M9 11H4.2M9 11L3 5" stroke="#7C3AED" stroke-width="2" stroke-linecap="round" stroke-linejoin="round"/>
</svg>
